<?xml version="1.0" encoding="UTF-8" standalone="no"?>
<!-- Generator: Adobe Illustrator 12.0.0, SVG Export Plug-In . SVG Version: 6.00 Build 51448)  -->

<svg
   xmlns:dc="http://purl.org/dc/elements/1.1/"
   xmlns:cc="http://creativecommons.org/ns#"
   xmlns:rdf="http://www.w3.org/1999/02/22-rdf-syntax-ns#"
   xmlns:svg="http://www.w3.org/2000/svg"
   xmlns="http://www.w3.org/2000/svg"
   xmlns:sodipodi="http://sodipodi.sourceforge.net/DTD/sodipodi-0.dtd"
   xmlns:inkscape="http://www.inkscape.org/namespaces/inkscape"
   id="Layer_1"
   style="enable-background:new 0 0 272.14 236.028"
   sodipodi:docname="Yarn-lana-architetto-francesc-01bw.svg"
   xml:space="preserve"
   viewBox="0 0 272.14 236.028"
   sodipodi:version="0.32"
   version="1.0"
   inkscape:version="0.92.3 (2405546, 2018-03-11)"><defs
   id="defs1234">
	
	
	
	
	
	
	
	
	
	
	
	
	
	
	
	
	
	
	
	
	
	
	
	
	
	
	
	
	
	
	
	
	
	
	
	
	
	
	
	
	
</defs>
<sodipodi:namedview
   id="base"
   bordercolor="#666666"
   inkscape:pageshadow="2"
   inkscape:window-width="1544"
   pagecolor="#ffffff"
   inkscape:zoom="3.2030098"
   inkscape:window-x="75"
   borderopacity="1.0"
   inkscape:current-layer="Layer_1"
   inkscape:cx="128.59773"
   inkscape:cy="136.37026"
   inkscape:window-y="34"
   inkscape:window-height="942"
   inkscape:pageopacity="0.0"
   showgrid="false"
   inkscape:window-maximized="0" />

<metadata
   id="metadata1231"><rdf:RDF><cc:Work><dc:format>image/svg+xml</dc:format><dc:type
         rdf:resource="http://purl.org/dc/dcmitype/StillImage" /><cc:license
         rdf:resource="http://creativecommons.org/licenses/publicdomain/" /><dc:publisher><cc:Agent
           rdf:about="http://openclipart.org/"><dc:title>Openclipart</dc:title></cc:Agent></dc:publisher><dc:title></dc:title><dc:date>2010-03-10T19:56:33</dc:date><dc:description>Drawing by Francesco 'Architetto' Rollandin. From OCAL 0.18 release.</dc:description><dc:source>https://openclipart.org/detail/30895/architetto----lana-by-anonymous</dc:source><dc:creator><cc:Agent><dc:title>Anonymous</dc:title></cc:Agent></dc:creator><dc:subject><rdf:Bag><rdf:li>hobby</rdf:li><rdf:li>knitting</rdf:li><rdf:li>wool</rdf:li></rdf:Bag></dc:subject></cc:Work><cc:License
       rdf:about="http://creativecommons.org/licenses/publicdomain/"><cc:permits
         rdf:resource="http://creativecommons.org/ns#Reproduction" /><cc:permits
         rdf:resource="http://creativecommons.org/ns#Distribution" /><cc:permits
         rdf:resource="http://creativecommons.org/ns#DerivativeWorks" /></cc:License></rdf:RDF></metadata><g
   id="g5594"><path
     sodipodi:nodetypes="cccccccccccccccccccccccccccccccccccccccccc"
     id="path5"
     d="m 264.02,18.327 c -16.047,-11.568 -41.9,-13.155 -54.826,3.716 -12.907,16.849 -5.959,38.873 -0.267,57.205 4.275,13.771 -0.098,28.556 -11.982,37.374 -7.806,5.792 -26.435,12.076 -33.657,1.725 12.419,-7.086 29.15,-12.417 33.24,-28.543 2.341,-9.231 -11.928,-34.896 -19.089,-21.051 20.227,-6.806 17.748,22.438 10.2,31.754 -8.853,10.921 -23.84,16.03 -36.096,17.215 -5.07,0.491 -16.534,-1.684 -13.231,-8.355 9.901,18.665 41.208,-3.021 47.87,-13.557 10.755,-17.011 -11.344,-29.709 -13.321,-16.115 4.182,-4.982 9.746,-5.688 13.559,0.06 5.668,8.546 -4.259,18.814 -10.05,23.905 -6.078,5.342 -14.476,10.037 -22.895,8.92 0.22,-7.524 1.989,-16.687 5.413,-24.5 4.376,-9.99 16.131,-13.423 19.502,-21.704 -18.282,6.555 -22.05,22.654 -27.411,39.366 -0.323,1.003 0.731,6.028 -0.12,6.6 -3.485,2.342 -10.189,-2.2 -11.715,-5.113 -1.262,-2.412 -0.621,-12.893 -1.664,-17.066 -1.697,-6.786 -2.463,-14.501 -7.284,-19.89 C 114.12463,54.280111 110.09312,55.404423 106.05682,52.524 99.204507,47.496837 93.577699,45.644265 91.842,44.646 87.618,42.215 81.588,42.791 76.944,43.546 68.487,44.921 57.866,46.529 50.186,51.157 32.021,62.122 18.467,83.499 24.257,105.839 c 2.016,7.785 5.952,14.802 10.733,21.14 2.739,3.632 12.309,7.669 13.677,9.93 0.692,0.237 1.346,0.556 1.961,0.952 5.650092,2.79986 7.428159,6.17013 20.517,8.327 4.795275,1.71523 8.183486,1.26248 13.422106,1.84499 C 89.26812,147.78 98.284,145.559 102.839,144.287 c 12.374,-3.459 17.919,-9.207 27.028,-19.356 8.262,-9.207 3.612,-8.769 14.777,-5.679 7.568,2.095 7.058,2.938 13.26,6.185 12.89,6.742 29.238,8.124 42.221,0.772 22.835,-12.932 21.225,-45.787 14.183,-66.926 -5.413,-16.245 -4.89,-41.479 18.314,-42.339 6.051,-0.225 11.66,0.202 17.273,2.765 4.993,2.278 17.836,20.216 21.943,12.606 1.93,-3.541 -5.04,-12.326 -7.78,-13.969"
     inkscape:connector-curvature="0" /><path
     id="path7"
     d="m 162.87,89.089 c -1.325,2.101 -11.144,23.626 -4.639,23.489 1.318,-0.028 1.841,-12.457 3.152,-15.491 3.439,-7.958 11.052,-14.32 13.556,-22.388 -5.3,3.567 -8.62,9.377 -12.07,14.388"
     inkscape:connector-curvature="0" /><path
     id="path9"
     style="fill:#ffffff;fill-opacity:1"
     d="m 180.95,72.795 c 16.755,4.573 6.919,22.532 -0.654,30.328 -7.623,7.846 -34.062,21.174 -41.982,6.243 -3.303,6.671 8.161,8.846 13.231,8.355 13.026,-1.26 28.633,-6.947 37.492,-18.939 4.958,-6.711 7.481,-15.569 3.33,-23.25 -3.789,-7.014 -15.858,-12.29 -17.425,-0.833 1.96,-1.157 4.13,-1.093 6.01,-1.903"
     inkscape:connector-curvature="0" /><path
     id="path11"
     style="fill:#ffffff;fill-opacity:1"
     d="m 176.96,69.228 c -16.692,7.235 -23.024,27.466 -23.488,43.35 1.104,0.334 3.451,0.28 4.58,0.059 -12.63,-11.94 20.14,-35.657 18.91,-43.412"
     inkscape:connector-curvature="0" /><path
     id="path17"
     style="fill:#ffffff;fill-opacity:1"
     d="m 242.02,12.5 c 7.19,0.162 17.087,3.377 22.181,8.622 2.802,2.886 8.073,13.671 -0.179,10.228 -2.409,-1.004 -7.086,-9.786 -10.822,-12.011 -4.034,-2.404 -8.098,-3.567 -12.547,-4.223 -9.43,-1.389 -17.109,1.062 -24.023,7.731 -17.985,17.344 1.026,50.667 -0.416,72.546 -1.061,16.067 -13.586,34.375 -31.754,33.805 -9.011,-0.28 -23.675,-0.521 -29.138,-9.009 5.496,-2.424 15.038,5.354 22.002,5.056 17.687,-0.758 33.51,-14.28 35.796,-32.171 2.659,-20.784 -16.012,-40.899 -6.48,-62.497 6.15,-13.949 20.72,-21.349 35.38,-18.082"
     inkscape:connector-curvature="0" /><g
     id="g5556"><path
       inkscape:connector-curvature="0"
       d="M 91.338,47.523 C 82.484,44.967 71.973,48.583 63.805,50.437 50.443,53.471 39.81,62.672 34.133,74.876 25.982,92.392 29.914,111.89 39.722,128.87 25.944,112.558 19.772,86.189 33.478,67.385 43.118,54.162 75.958,37.92 91.338,47.523"
       style="fill:#ffffff;fill-opacity:1"
       id="path27" /><path
       inkscape:connector-curvature="0"
       d="M 94.25,50.438 C 87.496,55.08 71.66,54.386 62.407,56.742 51.81,59.438 43.591,70.94 39.662,80.765 32.241,99.325 39.438,116.917 47.691,133.928 32.827,130.449 30.436,89.977 35.025,77.91 40.95,62.329 52.666,56.666 66.779,53.709 76.203,51.731 83.541,47.331 94.25,50.436"
       style="fill:#ffffff;fill-opacity:1"
       id="path29" /><path
       inkscape:connector-curvature="0"
       d="m 97.879,54.065 c 5.267,-0.324 10.959,1.215 14.093,5.768 C 74.702,51.167 37.351,74.926 42.222,115.85 36.333,99.206 39.09,79.686 51.558,66.435 61.101,56.293 85.148,52.79 97.881,54.065"
       style="fill:#ffffff;fill-opacity:1"
       id="path31" /><path
       inkscape:connector-curvature="0"
       d="m 97.522,60.547 c 4.205,-0.782 8.467,-0.011 12.309,1.843 C 86.356,58.318 64.823,70.365 53.37,90.22 46.041,102.921 49.833,116.636 51.617,129.942 44.013,122.847 42.356,104.579 45.194,94.56 51.869,70.991 74.569,60.1 97.523,60.549"
       style="fill:#ffffff;fill-opacity:1"
       id="path33" /></g><path
     id="path35"
     style="fill:#ffffff;fill-opacity:1"
     d="m 98.592,64.531 c 0.109,2.465 -0.725,5.159 -1.07,7.612 -2.085,-2.095 -3.259,-4.761 -3.983,-7.612 1.853,-0.787 3.36,-0.526 5.053,0"
     inkscape:connector-curvature="0" /><path
     id="path37"
     style="fill:#ffffff;fill-opacity:1"
     d="m 102.58,63.817 c 1.187,10.173 -0.76,21.668 -1.843,32.229 -0.821,8.009 -1.911,16.284 -4.756,23.904 -1.958,5.242 -10.957,25.225 -17.425,26.045 -6.823,0.866 0.83,-8.47 2.202,-10.524 4.307,-6.454 8.25,-11.772 11,-18.613 5.763,-14.329 4.626,-32.288 8.801,-47.75 0.64,-2.388 1.04,-4.129 2.02,-5.303"
     inkscape:connector-curvature="0" /><path
     id="path39"
     style="fill:#ffffff;fill-opacity:1"
     d="m 107.99,64.888 c -2.363,17.723 -1.029,33.44 -5.352,51.853 -2.205,9.39 -9.601,16.562 -12.071,24.797 -3.043,10.145 6.046,-4.39 8.443,-7.255 -2.951,9.948 -6.5,13.746 -16.293,11.536 18.355,-24.622 22.776,-51.27 22.776,-81.645 0.83,0.131 1.68,0.597 2.49,0.713"
     inkscape:connector-curvature="0" /><path
     id="path41"
     style="fill:#ffffff;fill-opacity:1"
     d="m 91.041,65.245 c 1.556,5.55 7.358,9.443 5.054,15.223 C 92.372,78.019 84.341,67.432 91.041,65.245"
     inkscape:connector-curvature="0" /><path
     id="path43"
     style="fill:#ffffff;fill-opacity:1"
     d="M 85.926,67.028 C 84.982,74.885 100.06,84.329 95.024,90.992 90.115,97.49 71.708,67.504 85.926,67.028"
     inkscape:connector-curvature="0" /><path
     id="path45"
     style="fill:#ffffff;fill-opacity:1"
     d="m 115.18,99.912 c -1.999,9.377 -5.502,18.375 -7.195,27.83 2.672,-17.132 1.623,-47.021 13.736,-59.94 -1.82,10.721 -3.64,21.834 -6.54,32.112"
     inkscape:connector-curvature="0" /><path
     id="path47"
     style="fill:#ffffff;fill-opacity:1"
     d="m 127.85,72.499 c -5.913,22.389 -6.452,51.302 -22.002,69.693 2.251,-14.315 9.221,-29.848 12.666,-44.421 1.689,-7.144 1.408,-18.894 4.638,-24.976 1.99,-3.757 2.48,-6.301 4.69,-0.294"
     inkscape:connector-curvature="0" /><path
     id="path49"
     style="fill:#ffffff;fill-opacity:1"
     d="m 78.314,69.584 c -1.612,8.02 4.586,18.965 11.12,23.489 5.124,3.548 6.546,7.809 -1.129,4.223 -5.856,-2.736 -22.1,-25.083 -9.991,-27.712"
     inkscape:connector-curvature="0" /><path
     id="path51"
     style="fill:#ffffff;fill-opacity:1"
     d="m 71.12,73.213 c 1.384,6.981 3.439,14.262 8.207,19.742 4.011,4.613 14.192,7.545 12.785,13.855 C 85.559,104.29 54.492,78.176 71.12,73.213"
     inkscape:connector-curvature="0" /><path
     sodipodi:nodetypes="ccc"
     id="path53"
     style="fill:#ffffff;fill-opacity:1"
     d="M 114.42974,77.327012 C 113.02823,83.663012 110.094,99.843 108.34,105.74 108.19415,80.909 115.31522,68.066556 119.78522,66.607556"
     inkscape:connector-curvature="0" /><path
     id="path55"
     style="fill:#ffffff;fill-opacity:1"
     d="m 133.26,83.321 c -8.647,16.376 -5.67,36.164 -19.505,50.962 5.021,-20.318 11.895,-39.353 15.937,-60 1.81,2.636 3.03,5.78 3.56,9.041"
     inkscape:connector-curvature="0" /><path
     id="path57"
     style="fill:#ffffff;fill-opacity:1"
     d="m 64.994,80.051 c 0.191,13.52 29.613,27.522 24.619,35.44 -11.165,-1.213 -27.94,-16.263 -29.317,-28.186 -0.478,-4.141 1.077,-10.807 4.698,-7.253"
     inkscape:connector-curvature="0" /><path
     id="path59"
     style="fill:#ffffff;fill-opacity:1"
     d="m 71.833,109.31 c 5.18,4.095 9.875,8.178 16.65,8.742 -4.221,9.579 -42.351,-16.727 -31.04,-31.101 3.566,8.081 9.025,15.731 14.39,22.361"
     inkscape:connector-curvature="0" /><path
     id="path61"
     style="fill:#ffffff;fill-opacity:1"
     d="m 134.69,96.642 c -4.25,16.625 -7.633,28.187 -19.802,40.494 11.785,-13.11 18.104,-32.722 19.088,-50.187 1.83,3.145 2.12,6.686 0.71,9.689"
     inkscape:connector-curvature="0" /><path
     id="path63"
     style="fill:#00cc00"
     d="m 110.54,94.5 c -0.64,2.075 -0.51,1.657 0,0"
     inkscape:connector-curvature="0" /><path
     id="path65"
     style="fill:#ffffff;fill-opacity:1"
     d="m 59.227,106.45 c 7.44,7.553 15.422,14.928 26.045,17.363 -3.779,7.774 -40.553,-12.822 -31.813,-26.045 1.739,3.015 3.667,5.915 5.768,8.685"
     inkscape:connector-curvature="0" /><path
     id="path67"
     style="fill:#ffffff;fill-opacity:1"
     d="m 136.11,107.88 c -1.237,3.665 -2.368,8.216 -4.638,10.466 2.922,-6.495 4.954,-13.415 5.055,-20.575 1.23,3.355 1.1,6.985 -0.41,10.105"
     inkscape:connector-curvature="0" /><path
     id="path69"
     style="fill:#ffffff;fill-opacity:1"
     d="m 108.34,105.74 c -1.648,11.717 -0.693,28.826 -9.751,37.581 4.571,-12.27 5.941,-25.59 9.751,-37.58"
     inkscape:connector-curvature="0" /><path
     id="path71"
     style="fill:#ffffff;fill-opacity:1"
     d="m 62.438,118.35 c 5.244,4.853 12.384,8.712 19.207,11.238 -5.262,7.832 -32.699,-10.208 -30.028,-20.218 3.055,3.59 6.709,7.01 10.821,8.98"
     inkscape:connector-curvature="0" /><path
     id="path73"
     style="fill:#ffffff;fill-opacity:1"
     d="m 57.8,123.76 c 5.885,4.06 13.455,9.917 20.217,10.88 -5.587,3.547 -25.161,-6.006 -24.915,-14.449 1.312,1.75 3.352,2.39 4.698,3.57"
     inkscape:connector-curvature="0" /><path
     id="path75"
     style="fill:#ffffff;fill-opacity:1"
     d="m 68.979,136.42 c 2.174,0.623 4.482,1.331 6.481,2.141 -6.17,-0.701 -21.063,-2.93 -20.933,-10.405 4.244,3.64 9.196,6.37 14.452,8.26"
     inkscape:connector-curvature="0" /><path
     id="path77"
     style="fill:#00cc00"
     d="m 52.329,133.15 c 0.545,0.02 -1.319,-0.04 0,0"
     inkscape:connector-curvature="0" /><path
     id="path79"
     style="fill:#ffffff;fill-opacity:1"
     d="m 73.676,141.12 c -3.535,5.903 -19.634,1.01 -18.016,-6.124 5.446,3.65 11.965,3.98 18.016,6.12"
     inkscape:connector-curvature="0" /><path
     id="path81"
     style="fill:#00cc00"
     d="m 114.11,138.21 c -1.391,1.429 -1.68,2.592 -3.568,3.269 1.16,-1.07 2.59,-2.23 3.57,-3.27"
     inkscape:connector-curvature="0" /><path
     sodipodi:nodetypes="ccc"
     id="path53-5"
     style="fill:#ffffff;fill-opacity:1"
     d="m 109.09409,85.127345 c 0,0 -1.91614,21.033005 -3.67014,26.930005 0.86882,-28.187216 5.02393,-45.244445 9.49393,-46.703445"
     inkscape:connector-curvature="0" /><path
     sodipodi:nodetypes="ccc"
     id="path53-3"
     style="fill:#ffffff;fill-opacity:1"
     d="m 110.57708,68.970665 c -1.40151,6.336 -1.68199,6.281258 -3.35794,13.661238 C 109.831,62.39 109.74542,62.67617 114.21542,61.21717"
     inkscape:connector-curvature="0" /></g></svg>